<?xml version="1.0" encoding="UTF-8"?>
<svg xmlns="http://www.w3.org/2000/svg" viewBox="0 0 800 600" width="800" height="600">
  <rect width="800" height="600" fill="#f0f4ff"/>
  
  <!-- Background elements -->
  <rect x="50" y="50" width="700" height="500" rx="20" fill="#e0e7ff"/>
  
  <!-- Compiler Pipeline Visualization -->
  <g>
    <!-- Pipeline Stages -->
    <rect x="100" y="200" width="120" height="80" rx="10" fill="#818cf8" opacity="0.8"/>
    <text x="160" y="245" font-family="Arial" font-size="14" font-weight="bold" text-anchor="middle" fill="white">Lexical Analysis</text>
    
    <rect x="240" y="200" width="120" height="80" rx="10" fill="#6366f1" opacity="0.8"/>
    <text x="300" y="245" font-family="Arial" font-size="14" font-weight="bold" text-anchor="middle" fill="white">Parsing</text>
    
    <rect x="380" y="200" width="120" height="80" rx="10" fill="#4f46e5" opacity="0.8"/>
    <text x="440" y="245" font-family="Arial" font-size="14" font-weight="bold" text-anchor="middle" fill="white">Semantic Analysis</text>
    
    <rect x="520" y="200" width="120" height="80" rx="10" fill="#4338ca" opacity="0.8"/>
    <text x="580" y="245" font-family="Arial" font-size="14" font-weight="bold" text-anchor="middle" fill="white">Code Generation</text>
    
    <!-- Flow Arrows -->
    <polygon points="225,240 235,235 235,245" fill="#6366f1"/>
    <line x1="220" y1="240" x2="235" y2="240" stroke="#6366f1" stroke-width="2"/>
    
    <polygon points="365,240 375,235 375,245" fill="#4f46e5"/>
    <line x1="360" y1="240" x2="375" y2="240" stroke="#4f46e5" stroke-width="2"/>
    
    <polygon points="505,240 515,235 515,245" fill="#4338ca"/>
    <line x1="500" y1="240" x2="515" y2="240" stroke="#4338ca" stroke-width="2"/>
    
    <polygon points="645,240 655,235 655,245" fill="#312e81"/>
    <line x1="640" y1="240" x2="655" y2="240" stroke="#312e81" stroke-width="2"/>
  </g>
  
  <!-- Code Snippets -->
  <g>
    <!-- Input Code -->
    <rect x="150" y="100" width="200" height="80" rx="5" fill="#ffffff" stroke="#818cf8" stroke-width="2"/>
    <text x="160" y="120" font-family="monospace" font-size="12" fill="#312e81">function add(a, b) {</text>
    <text x="160" y="140" font-family="monospace" font-size="12" fill="#312e81">  return a + b;</text>
    <text x="160" y="160" font-family="monospace" font-size="12" fill="#312e81">}</text>
    
    <!-- Output Code -->
    <rect x="450" y="100" width="200" height="80" rx="5" fill="#ffffff" stroke="#4338ca" stroke-width="2"/>
    <text x="460" y="120" font-family="monospace" font-size="12" fill="#312e81">PUSH a</text>
    <text x="460" y="140" font-family="monospace" font-size="12" fill="#312e81">PUSH b</text>
    <text x="460" y="160" font-family="monospace" font-size="12" fill="#312e81">ADD</text>
    <text x="460" y="180" font-family="monospace" font-size="12" fill="#312e81">RETURN</text>
  </g>
  
  <!-- AST Visualization -->
  <g transform="translate(150, 300)">
    <rect x="0" y="0" width="120" height="40" rx="5" fill="#c7d2fe"/>
    <text x="60" y="25" font-family="Arial" font-size="12" font-weight="bold" text-anchor="middle" fill="#312e81">Function</text>
    
    <rect x="-50" y="70" width="80" height="30" rx="5" fill="#c7d2fe"/>
    <text x="-10" y="90" font-family="Arial" font-size="12" text-anchor="middle" fill="#312e81">Params</text>
    
    <rect x="70" y="70" width="80" height="30" rx="5" fill="#c7d2fe"/>
    <text x="110" y="90" font-family="Arial" font-size="12" text-anchor="middle" fill="#312e81">Body</text>
    
    <rect x="-70" y="130" width="50" height="30" rx="5" fill="#c7d2fe"/>
    <text x="-45" y="150" font-family="Arial" font-size="12" text-anchor="middle" fill="#312e81">a</text>
    
    <rect x="-10" y="130" width="50" height="30" rx="5" fill="#c7d2fe"/>
    <text x="15" y="150" font-family="Arial" font-size="12" text-anchor="middle" fill="#312e81">b</text>
    
    <rect x="70" y="130" width="80" height="30" rx="5" fill="#c7d2fe"/>
    <text x="110" y="150" font-family="Arial" font-size="12" text-anchor="middle" fill="#312e81">Return</text>
    
    <rect x="70" y="190" width="80" height="30" rx="5" fill="#c7d2fe"/>
    <text x="110" y="210" font-family="Arial" font-size="12" text-anchor="middle" fill="#312e81">a + b</text>
    
    <!-- Lines connecting nodes -->
    <line x1="60" y1="40" x2="-10" y2="70" stroke="#312e81" stroke-width="1"/>
    <line x1="60" y1="40" x2="110" y2="70" stroke="#312e81" stroke-width="1"/>
    <line x1="-10" y1="100" x2="-45" y2="130" stroke="#312e81" stroke-width="1"/>
    <line x1="-10" y1="100" x2="15" y2="130" stroke="#312e81" stroke-width="1"/>
    <line x1="110" y1="100" x2="110" y2="130" stroke="#312e81" stroke-width="1"/>
    <line x1="110" y1="160" x2="110" y2="190" stroke="#312e81" stroke-width="1"/>
  </g>
  
  <!-- Language Design Icon -->
  <g transform="translate(500, 350)">
    <circle cx="50" cy="50" r="40" fill="#a5b4fc"/>
    <text x="50" y="65" font-family="Arial" font-size="48" font-weight="bold" text-anchor="middle" fill="#312e81">λ</text>
  </g>
  
  <!-- C++ Icon -->
  <g transform="translate(650, 500)">
    <circle cx="25" cy="25" r="25" fill="#6366f1"/>
    <text x="25" y="35" font-family="Arial" font-size="20" font-weight="bold" text-anchor="middle" fill="white">C++</text>
  </g>
  
  <!-- Title -->
  <text x="400" y="80" font-family="Arial" font-size="24" font-weight="bold" text-anchor="middle" fill="#312e81">Custom Language Compiler</text>
</svg>